<svg width="227" height="171" viewBox="0 0 227 171" fill="none" xmlns="http://www.w3.org/2000/svg">
<path d="M127.25 78.25H98.75" stroke="#FF4255" stroke-width="7" stroke-linecap="round" stroke-linejoin="round"/>
<path d="M156 128V52.5714C156 49.2373 154.49 46.0397 151.802 43.6821C149.114 41.3245 145.468 40 141.667 40H84.3333C80.5319 40 76.8862 41.3245 74.1981 43.6821C71.5101 46.0397 70 49.2373 70 52.5714V121.714C70 123.381 70.7551 124.98 72.0991 126.159C73.4431 127.338 75.2659 128 77.1667 128H91.5" stroke="#FF4255" stroke-width="7" stroke-linecap="round" stroke-linejoin="round"/>
<path d="M192.625 128.25H206.875C208.765 128.25 210.577 127.499 211.913 126.163C213.249 124.827 214 123.015 214 121.125V97.755C213.999 96.2602 213.528 94.8037 212.653 93.5915C211.778 92.3793 210.545 91.4729 209.126 91.0005L195.425 86.4334C194.537 86.1369 193.717 85.6684 193.01 85.0547C192.304 84.441 191.725 83.6941 191.307 82.8566L180.341 60.9401C179.75 59.7568 178.841 58.7615 177.716 58.0656C176.591 57.3697 175.295 57.0007 173.972 57H157" stroke="#FF4255" stroke-width="7" stroke-linecap="round" stroke-linejoin="round"/>
<path d="M113 64V92.5" stroke="#FF4255" stroke-width="7" stroke-linecap="round" stroke-linejoin="round"/>
<path d="M120.125 128.25H162.875" stroke="#FF4255" stroke-width="7" stroke-linecap="round" stroke-linejoin="round"/>
<path d="M179.125 142.5C186.995 142.5 193.375 136.12 193.375 128.25C193.375 120.38 186.995 114 179.125 114C171.255 114 164.875 120.38 164.875 128.25C164.875 136.12 171.255 142.5 179.125 142.5Z" stroke="#FF4255" stroke-width="7" stroke-linecap="round" stroke-linejoin="round"/>
<path d="M105.875 142.5C113.745 142.5 120.125 136.12 120.125 128.25C120.125 120.38 113.745 114 105.875 114C98.0049 114 91.625 120.38 91.625 128.25C91.625 136.12 98.0049 142.5 105.875 142.5Z" stroke="#FF4255" stroke-width="7" stroke-linecap="round" stroke-linejoin="round"/>
<path d="M48.5 60H20" stroke="#FF4255" stroke-width="7" stroke-linecap="round" stroke-linejoin="round"/>
<path d="M49 84L4 84" stroke="#FF4255" stroke-width="7" stroke-linecap="round" stroke-linejoin="round"/>
<path d="M49 108L28 108" stroke="#FF4255" stroke-width="7" stroke-linecap="round" stroke-linejoin="round"/>
</svg>
