<svg width="142" height="142" viewBox="0 0 142 142" fill="none" xmlns="http://www.w3.org/2000/svg">
<g clip-path="url(#clip0_524_10373)">
<path d="M99.1901 76.5894C98.3401 76.5894 97.5601 76.0494 97.2801 75.1994C95.5801 69.8794 91.9501 64.9694 86.4801 60.5994C79.5201 55.0294 73.9701 47.2294 70.8601 38.8894C70.2901 40.4294 69.6501 41.9394 68.9201 43.4094C68.4301 44.3994 67.2301 44.8094 66.2401 44.3194C65.2501 43.8294 64.8401 42.6294 65.3301 41.6394C66.9601 38.3294 68.1601 34.8194 68.8901 31.2094C69.0801 30.2794 69.9001 29.6094 70.8501 29.6094C71.8001 29.6094 72.6201 30.2794 72.8101 31.2194C74.8001 41.1494 80.8401 50.9594 88.9701 57.4694C95.0601 62.3394 99.1301 67.8894 101.08 73.9694C101.42 75.0194 100.84 76.1494 99.7801 76.4794C99.5801 76.5394 99.3701 76.5794 99.1701 76.5794L99.1901 76.5894Z" fill="#FF4255"/>
<path d="M113.051 113.779C112.541 113.779 112.031 113.579 111.641 113.189L27.2705 28.8193C26.4905 28.0393 26.4905 26.7693 27.2705 25.9893C28.0505 25.2093 29.3205 25.2093 30.1005 25.9893L114.471 110.359C115.251 111.139 115.251 112.409 114.471 113.189C114.081 113.579 113.571 113.779 113.061 113.779H113.051Z" fill="#FF4255"/>
<path d="M70.8696 113.779C62.4496 113.779 54.5296 110.499 48.5796 104.539C42.6196 98.5792 39.3496 90.6692 39.3496 82.2492C39.3496 73.0692 43.9896 64.4992 52.7596 57.4892C53.8696 56.5992 54.9496 55.6492 55.9696 54.6492C56.7596 53.8792 58.0296 53.8992 58.7996 54.6892C59.5696 55.4792 59.5496 56.7492 58.7596 57.5192C57.6496 58.5992 56.4696 59.6392 55.2596 60.6092C47.4696 66.8392 43.3496 74.3192 43.3496 82.2492C43.3496 89.5992 46.2096 96.5192 51.4096 101.719C56.6096 106.919 63.5196 109.779 70.8696 109.779C81.2196 109.779 90.5996 104.069 95.3396 94.8592C95.8496 93.8792 97.0496 93.4892 98.0296 93.9992C99.0096 94.5092 99.3996 95.7092 98.8896 96.6892C93.4596 107.229 82.7196 113.769 70.8696 113.769V113.779Z" fill="#FF4255"/>
</g>
<defs>
<clipPath id="clip0_524_10373">
<rect width="141.73" height="141.73" fill="white"/>
</clipPath>
</defs>
</svg>
