<svg width="142" height="142" viewBox="0 0 142 142" fill="none" xmlns="http://www.w3.org/2000/svg">
<path d="M102.515 108.715C102.515 106.502 101.702 104.379 100.253 102.815C98.8049 101.25 96.8402 100.371 94.7917 100.371H48.0181C45.9697 100.371 44.0049 101.25 42.5565 102.815C41.108 104.379 40.2946 106.502 40.2946 108.715V113.768C40.2946 114.641 40.6153 115.478 41.1866 116.095C41.7579 116.712 42.5328 117.058 43.3407 117.058H99.4691C100.277 117.058 101.052 116.712 101.623 116.095C102.194 115.478 102.515 114.641 102.515 113.768V108.715ZM29.3086 66.5292L29.4754 66.5383C30.2979 66.6285 30.9399 67.3791 30.9399 68.2914C30.9399 69.2038 30.2979 69.9544 29.4754 70.0446L29.3086 70.0537H24.6313C23.7304 70.0537 23 69.2646 23 68.2914C23 67.3183 23.7304 66.5292 24.6313 66.5292H29.3086ZM118.179 66.5292L118.345 66.5383C119.168 66.6285 119.81 67.3791 119.81 68.2914C119.81 69.2038 119.168 69.9544 118.345 70.0446L118.179 70.0537H113.501C112.6 70.0537 111.87 69.2646 111.87 68.2914C111.87 67.3183 112.6 66.5292 113.501 66.5292H118.179ZM37.1783 31.3167C37.7755 30.6714 38.7208 30.6314 39.3614 31.1962L39.4851 31.3167L42.7917 34.8887L42.9041 35.0234C43.4264 35.7154 43.3887 36.7358 42.7917 37.3808C42.1946 38.0258 41.2501 38.0664 40.6095 37.5022L40.4848 37.3808L37.1783 33.8087L37.0668 33.6751C36.5439 32.983 36.581 31.9619 37.1783 31.3167ZM100.654 29.1485C101.291 28.4604 102.324 28.4604 102.961 29.1485C103.598 29.8366 103.598 30.9524 102.961 31.6406L100.623 34.167C99.9855 34.8551 98.9527 34.8551 98.3157 34.167C97.6787 33.4789 97.6787 32.3631 98.3157 31.675L100.654 29.1485ZM69.7736 22.8152V17.7622C69.7736 16.7891 70.5041 16 71.4049 16C72.3057 16 73.0362 16.7891 73.0362 17.7622V22.8152C73.0362 23.7883 72.3057 24.5774 71.4049 24.5774C70.5041 24.5774 69.7736 23.7883 69.7736 22.8152ZM93.1605 68.2914C93.1605 62.0582 90.8681 56.0807 86.7881 51.6731C82.7081 47.2655 77.1749 44.7891 71.4049 44.7891C65.6349 44.7891 60.1017 47.2655 56.0217 51.6731C51.9417 56.0807 49.6494 62.0582 49.6494 68.2914V96.8467H69.7736V68.2914C69.7736 67.3183 70.5041 66.5292 71.4049 66.5292C72.3057 66.5292 73.0362 67.3183 73.0362 68.2914V96.8467H93.1605V68.2914ZM96.423 96.9783C98.733 97.353 100.888 98.5166 102.56 100.323C104.62 102.548 105.778 105.567 105.778 108.715V113.768C105.778 115.575 105.113 117.309 103.93 118.587C102.747 119.865 101.142 120.583 99.4691 120.583H43.3407C41.6676 120.583 40.0629 119.865 38.8798 118.587C37.6967 117.309 37.0321 115.575 37.0321 113.768V108.715C37.0321 105.567 38.1894 102.548 40.2497 100.323C41.9214 98.5166 44.0768 97.353 46.3868 96.9783V68.2914C46.3868 61.1235 49.0231 54.2495 53.7149 49.181C58.4067 44.1126 64.7698 41.2646 71.4049 41.2646C78.0401 41.2646 84.4032 44.1126 89.095 49.181C93.7867 54.2495 96.423 61.1235 96.423 68.2914V96.9783Z" fill="#FF4255"/>
</svg>
