<svg width="142" height="143" viewBox="0 0 142 143" fill="none" xmlns="http://www.w3.org/2000/svg">
<path d="M82.2409 43.3682C87.0909 43.0682 89.6809 46.3482 91.1509 50.5182C91.5109 51.5482 91.3609 53.3582 91.6509 53.8082C91.8109 54.0482 95.0509 55.3382 96.2209 57.1182C97.6609 59.3082 97.7909 64.0682 98.0309 64.3582C98.1809 64.5382 99.5309 64.5182 100.121 64.8682C105.651 68.0982 104.161 77.8482 102.151 82.9082C97.8009 93.8882 79.9309 107.028 69.3709 112.008C64.5709 114.278 58.9809 114.828 54.6209 117.108C53.1709 117.868 48.0309 123.188 47.1609 120.138C46.4209 117.548 54.1509 113.608 56.1809 112.838C58.8709 111.818 62.1109 111.428 64.8309 110.398C74.8409 106.598 93.6609 92.9282 98.4409 83.2882C100.141 79.8582 102.801 69.0682 97.9709 67.5682C95.3409 66.7582 85.9609 73.5182 83.6709 75.5282C81.7709 77.1982 75.4209 82.5282 79.4109 84.4182C85.3009 87.1982 91.4809 76.8682 95.9009 76.6582C98.9409 76.5182 94.8309 80.7182 94.1709 81.3582C87.8809 87.3882 75.5109 93.7982 74.5709 80.1982C69.0409 80.2982 65.5509 75.0782 68.7609 70.2582C61.4609 69.6182 58.7209 65.1582 62.3409 58.5882L59.4309 58.2582C58.1809 59.5482 57.8009 62.3282 55.6409 62.1282C51.8109 61.7682 57.4209 55.1882 58.6709 53.9882C64.4709 55.6082 70.7009 60.2082 76.3309 55.3082C76.8609 53.5082 70.5109 48.7082 68.9609 47.6082C66.3709 45.7782 63.0109 43.2682 59.7509 43.3982C55.7509 43.5582 46.3309 48.1682 42.9009 50.5282C30.3109 59.1682 29.6509 82.4382 23.7209 95.5682C22.3309 98.6382 18.2309 104.068 14.4709 103.528C14.3109 99.6582 18.8909 98.2082 20.6009 94.7782C24.4609 87.0582 26.3209 73.2782 29.7909 64.2782C31.3709 60.1782 34.1509 53.7782 37.2109 50.6882C41.0509 46.8182 54.4609 40.4582 59.8909 40.0382C61.5009 39.9182 62.6809 40.7082 64.2409 40.4082C66.8909 39.8982 70.7409 35.1382 74.4509 34.7882C78.6509 34.3882 82.4909 39.3882 82.2309 43.3782L82.2409 43.3682ZM74.4609 38.2482C73.4309 38.4182 67.5809 41.8982 67.6109 42.5282C71.1009 44.8082 74.7309 50.0682 78.6909 45.4382C80.4209 43.4182 77.8009 37.6982 74.4609 38.2382V38.2482ZM86.1209 47.6682C84.0509 45.9782 78.9009 48.1182 77.8009 49.8182C76.9009 51.2082 79.6409 51.9382 79.8809 53.6582C80.3409 56.8982 77.1109 59.5282 74.1809 60.1982C71.2509 60.8682 65.1309 59.3182 64.2009 62.5082C62.9709 66.7382 69.2209 67.4982 72.1209 66.3182C73.3809 65.8082 78.1109 60.8982 79.9109 59.5182C81.3209 58.4382 88.2509 54.5182 88.3909 53.6582C88.5909 52.4582 87.1009 48.4782 86.1209 47.6782V47.6682ZM74.2309 68.7082C72.0609 71.0582 68.5609 76.0982 73.8709 77.1582C77.7309 77.9282 83.3609 71.5382 86.6809 69.1982C89.2609 67.3782 91.9809 65.9182 94.7609 64.4582C94.4409 60.5582 93.5309 56.1782 88.5909 57.6882C86.2709 58.3982 76.1609 66.6182 74.2209 68.7182L74.2309 68.7082Z" fill="#FF4255"/>
<path d="M94.9708 19.5492L96.7908 33.4892L110.741 35.3092L107.931 49.7692C109.841 50.6392 120.941 55.5092 121.271 56.6292C121.521 57.4592 120.991 58.1092 120.651 58.7892C119.961 60.1392 112.311 70.5592 111.591 70.7592C110.871 70.9592 110.371 70.9392 109.921 70.2792C108.151 67.7092 117.261 59.9992 116.621 57.7892L104.461 51.2092L106.731 37.5692L94.4508 36.1292C93.1808 35.2292 92.8208 25.6592 92.7108 23.5592L78.7208 27.6292C78.4008 26.5292 78.0408 25.4892 79.1108 24.6892C80.3408 23.7792 89.7108 20.3992 91.6508 19.8792C92.7408 19.5892 93.8408 19.2292 94.9808 19.5492H94.9708Z" fill="#FF4255"/>
<path d="M49.9799 31.0584L34.3099 29.9884C33.7899 33.7984 34.1299 40.1084 33.0199 43.5784C32.4599 45.3284 30.8899 45.6584 29.9199 43.9784L31.9399 26.7384L47.7699 27.3784L53.3899 14.2884C53.8999 14.1184 54.3899 14.2184 54.8999 14.3284C55.8999 14.5284 65.8299 18.9384 66.6499 19.5584C68.6699 21.0984 67.4599 22.6884 65.1199 22.2884C63.1599 21.9584 56.2799 17.9784 55.1199 18.3384L49.9899 31.0484L49.9799 31.0584Z" fill="#FF4255"/>
<path d="M112.561 97.1077L111.391 83.6777H114.311L115.771 99.4277C115.641 99.6977 114.711 100.608 114.611 100.608H103.811L102.001 113.968C100.981 114.828 89.2513 111.648 87.3313 110.958C85.1013 110.168 83.8013 108.648 86.5813 107.598L99.1413 110.528C100.271 109.488 99.3313 98.6777 101.771 97.0977H112.571L112.561 97.1077Z" fill="#FF4255"/>
<path d="M48.9615 96.4676C47.6915 94.6976 51.7315 91.9576 52.6715 90.6476C54.9215 87.4976 56.3615 82.0076 56.5215 78.1576C56.6715 74.7076 55.3515 70.7276 55.9215 67.6276C56.3115 65.4976 57.9415 65.5476 58.8315 67.6276C60.8315 72.3176 59.2915 85.3876 56.8215 90.1176C56.0115 91.6676 50.8515 99.0976 48.9615 96.4676Z" fill="#FF4255"/>
</svg>
