<svg width="143" height="142" viewBox="0 0 143 142" fill="none" xmlns="http://www.w3.org/2000/svg">
<path d="M74.7803 63.4006C62.3403 64.6906 49.5703 65.2506 37.6603 60.7506C39.4703 65.2206 36.8603 80.3106 39.1803 83.1006C41.5003 85.8906 54.8002 88.4006 58.5202 88.6206C61.1402 88.7706 69.2803 87.6806 70.3703 88.0106C71.6903 88.4106 71.9702 90.3106 70.8302 90.9306C70.3202 91.2106 64.9303 91.9006 63.8803 91.9306C56.9203 92.1606 43.0903 89.9706 37.4303 85.8406C35.2803 84.2706 35.1603 79.7906 34.9803 77.0206C34.4503 68.8606 35.6103 58.4806 34.3103 50.5106C33.9903 48.5506 32.2403 47.2006 31.8503 45.0206C31.0703 40.7406 31.1303 33.1806 34.4103 29.9906C43.8503 20.8106 81.7803 20.4006 90.4003 30.2206C93.6103 33.8706 93.4203 43.7806 91.5003 47.9606C90.9503 49.1606 89.6703 49.7006 89.3903 51.1506C88.8103 54.1706 90.2403 69.6806 88.7103 70.6906C88.1503 71.0606 86.0703 70.3706 86.0703 69.7006V52.8006C70.9203 58.2806 52.5303 58.8206 37.6803 52.1406C37.8003 53.5406 37.2703 55.5706 38.0003 56.7906C39.5203 59.3206 54.0103 61.3506 57.2103 61.4506C63.7903 61.6606 70.3503 59.8006 76.7903 60.4406C77.1003 60.5906 78.1203 61.6406 78.1203 61.7506V81.6406C78.1203 82.8906 74.8002 82.8906 74.8002 81.6406V63.4106L74.7803 63.4006ZM54.0903 26.4706C49.7603 26.8806 37.9903 29.3606 35.7303 33.3106C34.3703 35.6906 34.4603 44.9906 36.3103 47.1706C43.7503 55.9206 77.7803 55.2406 86.6703 48.4506C90.2203 45.7406 90.5602 35.5306 88.0502 32.5706C82.5502 26.0906 62.0403 25.7406 54.0903 26.4806V26.4706Z" fill="#FF4255"/>
<path d="M131.131 61.4014C128.941 61.6414 127.541 60.1614 126.131 58.7714L125.181 58.7514L117.921 69.5914C118.921 71.9814 127.201 75.0614 126.491 77.6314C124.151 80.7714 121.561 74.7814 119.201 76.2814L95.3306 109.481C93.0106 110.921 85.9906 106.791 83.3806 106.101C81.5706 106.981 73.9606 120.401 71.2706 122.841C69.7306 124.231 67.8606 122.861 68.4606 121.091L80.6006 104.141C78.9006 101.861 73.4306 96.5714 74.2206 93.6914L98.6306 59.4214C96.1906 58.6114 91.7407 55.6614 96.2007 54.1814C98.0607 55.0514 104.181 60.9214 105.851 59.9614L112.471 50.2814L112.271 48.7714L109.341 46.3614C108.911 45.2014 109.711 44.1014 110.911 44.1114C112.111 44.1214 128.601 56.3514 129.831 57.7014C130.961 58.9414 131.401 59.5814 131.121 61.3714L131.131 61.4014ZM115.801 67.2814L122.551 57.0714L115.571 51.4514L107.981 62.3114C108.961 63.7614 114.471 68.0514 115.801 67.2814ZM93.9006 106.401L117.091 73.6614L101.621 62.1914L97.4106 68.2814C106.121 74.0814 102.121 77.4114 95.0006 70.7014C93.7906 73.3114 89.3107 75.9214 91.6407 78.6914C92.7007 79.9514 95.8906 80.7214 95.3306 82.9414C94.5406 86.0514 89.5606 80.1514 87.8006 80.6714L83.4306 86.3214L83.7106 87.2714C84.9506 88.4614 89.2807 90.1214 88.7007 92.2214C86.2907 95.3914 83.4607 89.3814 81.2007 89.9714L77.6506 94.8814C80.7406 101.101 87.0806 105.401 93.9006 106.401Z" fill="#FF4255"/>
<path d="M45.4312 100.021C54.5712 98.601 65.7312 101.381 64.1012 112.731C62.4012 124.571 37.3612 124.031 35.7012 113.411C34.5412 106.031 38.0712 101.161 45.4312 100.021ZM45.4312 103.331C39.9912 104.241 37.9612 108.181 38.9912 113.441C39.7112 117.141 48.0112 118.641 51.2312 118.421C57.3312 118.011 62.7212 114.461 60.7212 107.621C59.3112 102.811 49.3812 102.671 45.4412 103.331H45.4312Z" fill="#FF4255"/>
<path d="M39.6404 99.2015C43.6004 87.3715 19.8704 86.9515 17.9004 93.7015C16.1404 99.7215 19.3704 103.872 25.3904 104.502C27.5404 104.732 33.8204 103.372 33.5104 106.172C33.2404 108.532 26.6504 107.902 24.9004 107.642C17.0004 106.482 12.9504 101.852 14.6004 93.7115C16.7404 83.2115 41.5204 83.5815 42.9004 94.9515C43.0504 96.2215 43.3904 98.6115 41.8804 99.1115L39.6404 99.1915V99.2015Z" fill="#FF4255"/>
<path d="M33.5209 96.6803C36.6309 102.34 25.911 96.4803 24.141 95.1303C22.141 93.6003 23.0009 91.6403 25.2309 92.0003C25.7009 92.0803 33.2809 96.2603 33.5109 96.6803H33.5209Z" fill="#FF4255"/>
<path d="M78.6098 37.0014C84.0298 36.4014 84.1398 46.8414 80.2398 48.6414C79.2598 49.0914 74.3798 50.0814 73.4098 49.8414C69.4098 48.8814 70.0498 39.3614 72.5898 38.3414C73.2698 38.0714 77.7298 37.0914 78.6098 37.0014ZM79.4098 40.2014L74.3998 41.4814L74.1198 46.8314L79.1298 45.5514L79.4098 40.2014Z" fill="#FF4255"/>
<path d="M44.0902 36.9805C51.8302 38.1205 54.7902 37.5005 53.5902 46.5305C52.9302 51.5105 43.6702 49.6505 42.6102 47.5005C41.8802 46.0205 41.4902 37.6805 44.0902 36.9805ZM50.2402 46.8205L49.9602 41.4705L45.5802 40.4805C44.5102 41.2405 44.7902 44.3105 45.2202 45.5405L50.2302 46.8205H50.2402Z" fill="#FF4255"/>
<path d="M54.1694 105.221C54.3794 105.511 54.3594 107.311 54.1094 107.711C53.8494 108.131 45.8594 112.451 45.3694 112.351C43.2794 111.941 43.2394 110.331 45.1494 109.021C46.5594 108.061 53.1594 103.811 54.1694 105.221Z" fill="#FF4255"/>
</svg>
