<svg width="143" height="143" viewBox="0 0 143 143" fill="none" xmlns="http://www.w3.org/2000/svg">
<path d="M102.198 93.8085C101.938 95.0185 102.358 94.6385 102.858 94.9685C110.018 99.5685 125.818 101.348 121.398 113.268C119.518 118.338 115.928 119.198 110.828 118.478C102.698 113.858 91.8384 110.948 84.0984 105.958C82.3284 104.818 81.2984 103.838 80.4784 101.828C77.7384 95.0885 81.3784 82.9285 80.5184 75.4585C79.9284 70.3185 77.7184 75.8985 77.1184 76.7585C73.7784 81.4885 64.6984 92.5385 60.6284 96.4185C58.2584 98.6785 55.7584 99.3985 52.7684 98.0385C48.9284 96.2885 46.5084 92.0385 48.5384 87.9585C50.0784 84.8685 57.5484 77.3985 58.1884 74.8485C58.6384 73.0685 56.4484 70.9085 54.6884 71.1385C53.0484 73.9485 48.0684 86.2485 45.5184 87.0085C44.7184 87.2485 43.8484 87.1485 43.0284 87.1485C34.3884 83.7985 21.3784 82.0585 13.3984 78.0285C7.42841 75.0085 10.0584 64.7485 16.7184 64.3885C20.2084 64.1985 35.1684 69.6485 36.5184 68.4785C42.1184 56.4885 42.3484 37.2785 59.5884 37.0385C68.4984 36.9085 93.0684 46.0685 99.6084 52.2685C104.478 56.8785 103.658 60.2585 105.108 65.8785C105.368 66.8985 108.958 74.7585 109.398 75.0185C118.258 76.6285 137.938 69.5385 136.208 85.2785C135.428 92.3485 129.768 92.1685 124.128 92.8185L102.188 93.8585L102.198 93.8085ZM60.3384 59.2485L59.3284 64.1085C67.4584 66.3685 75.7584 68.3685 83.3484 72.1085C83.8584 72.9485 83.6684 78.6585 83.6184 80.1385C83.4484 85.4685 81.7084 95.7585 83.4284 100.418C84.4584 103.198 86.7284 103.828 89.0984 105.078C93.8384 107.568 108.088 114.658 112.638 115.658C117.848 116.808 120.948 109.728 117.698 105.918C114.958 102.698 98.7784 97.9185 98.1284 95.4985C99.0884 84.3385 102.068 73.3385 101.628 62.0985C100.398 53.0285 85.1484 47.1885 77.5284 44.3685C67.9284 40.8285 54.4084 36.1085 47.6784 46.7885C45.9384 49.9185 39.7884 70.8785 38.1584 71.8685C35.4784 73.4985 20.4984 66.6985 16.2184 67.4685C13.6384 67.9285 11.8784 72.8785 14.1084 74.7185L41.7484 83.7585C42.6484 84.0985 43.4884 84.0185 44.3884 83.7585C45.8884 83.3385 55.6484 62.0185 57.5184 59.1885L58.5184 58.6985L60.3284 59.2385L60.3384 59.2485ZM74.6884 71.7285L57.2684 66.9585C56.9284 70.0085 62.5084 71.0685 62.4084 73.9285C62.3384 75.8985 52.8384 86.6285 51.4584 89.2885C49.7384 92.9485 54.4784 97.1285 57.8084 94.6085C62.6784 88.3185 69.5284 82.1485 73.9984 75.6885C74.7284 74.6285 76.1384 72.9385 74.6884 71.7285ZM107.488 78.1785C107.258 77.9585 105.028 72.3885 104.268 73.1485C103.938 77.9085 102.198 83.7185 102.148 88.3785C102.148 89.2485 102.048 90.2985 103.038 90.6285C108.008 90.5485 112.978 89.9685 117.928 89.6485C121.928 89.3885 131.868 90.9485 133.078 85.6885C134.818 78.1085 127.828 77.1485 122.068 77.7685L109.198 78.7885C108.618 78.7085 107.918 78.5885 107.498 78.1685L107.488 78.1785Z" fill="#FF4255"/>
<path d="M29.769 33.5394C34.409 32.9294 40.099 34.8994 43.069 38.5594C44.059 39.7794 45.719 41.4794 44.389 42.9794C42.519 44.2894 40.859 40.8194 39.459 39.5794C27.699 29.2294 11.699 47.1194 23.949 57.6694C25.749 59.2194 28.269 60.6094 30.689 60.7694C33.109 60.9294 37.549 58.5694 36.399 62.8494C15.199 69.5994 8.429 36.3094 29.779 33.5194L29.769 33.5394Z" fill="#FF4255"/>
</svg>
