<svg width="142" height="142" viewBox="0 0 142 142" fill="none" xmlns="http://www.w3.org/2000/svg">
<path d="M23.0037 85.3636C21.0467 84.2568 19.0324 83.0412 18.3546 80.6595C17.5336 77.7639 18.2305 68.4051 19.5002 65.6281C21.7627 60.6868 27.1564 62.1988 31.1372 63.7504L35.2804 61.6553C35.7482 61.0425 33.8675 58.8881 33.4857 58.1667C27.7674 47.3453 33.8007 33.2329 45.3423 30.4164C56.8839 27.5998 68.2155 36.7017 68.4924 49.2526L66.9554 56.9413C68.5974 55.6565 69.9721 53.9963 71.7095 52.84C73.447 51.6837 75.5472 50.9919 77.4374 49.974C76.3586 47.6714 75.2512 45.6652 74.7262 43.0463C71.4804 26.9476 87.0602 13.9816 101.533 20.9093C110.124 25.0303 114.372 35.249 111.633 44.6275C111.069 46.5645 109.895 48.0865 109.523 49.9543L109.733 50.2409C115.709 51.6047 120.683 56.1704 122.306 62.3569C123.814 68.0987 122.201 73.5342 121.523 79.2463L126 113.776L123.088 114.221L122.516 113.618C121.752 107.57 121.255 101.423 120.31 95.4044C120.177 94.5446 120.186 93.2401 119.403 92.8052C118.659 97.3315 118.382 102.312 117.446 106.769C116.387 111.819 113.208 115.021 108.215 115.753C97.6853 115.13 86.3346 116.543 75.9099 115.753C69.4375 115.259 65.9912 110.624 67.385 103.973C68.1583 100.286 71.6713 96.7089 75.4517 96.7089H79.6903C80.0245 96.4914 80.0149 96.2246 80.0531 95.8688C80.3968 92.8349 80.1963 87.0931 80.034 83.901C79.5949 75.1055 77.3801 67.4761 68.6069 64.5015C67.2609 64.0469 63.3182 62.8906 62.1249 63.4144C61.6094 63.6417 59.9388 65.2031 59.1273 65.6775C53.8673 68.7806 47.4998 69.0376 42.0011 66.4187C41.2374 66.053 38.7648 64.3532 38.3925 64.3236C37.9343 64.284 34.889 65.4996 34.784 65.8751C34.6503 66.3495 36.1968 67.8912 36.6073 68.5731C40.2732 74.7497 36.9128 83.8516 30.1062 85.6502C29.3521 85.8479 26.2877 85.8874 26.2877 86.5792V110.12C25.1898 110.475 24.0824 110.475 22.9846 110.12V85.3538L23.0037 85.3636ZM92.2439 22.6091C78.0579 23.5974 72.3682 42.5226 83.6903 51.5651C91.2606 57.6133 102.01 55.4984 106.859 47.0093C113.303 35.7134 104.778 21.7394 92.2439 22.6091ZM47.4616 33.5788C41.8292 34.2409 36.5214 39.4194 35.2231 45.0723C32.3305 57.722 43.8913 68.4051 55.6047 63.4934C71.5377 56.8128 65.848 31.4145 47.4521 33.5887L47.4616 33.5788ZM71.8909 102.174C69.3706 105.406 70.0294 111.296 74.5544 112.017L108.444 112.076C111.623 111.533 113.456 109.181 114.162 106.038L119.594 68.2766C119.575 62.4558 117.437 57.5738 112.301 54.8857C110.974 54.1939 107.566 52.7906 106.21 53.3934C105.914 53.5219 104.883 54.5991 104.396 54.9252C98.1722 59.1056 90.6973 59.8468 84.0912 56.0321C83.1079 55.4688 80.6068 53.3045 79.9385 53.2452C78.9553 53.1562 76.2632 54.3026 75.2894 54.8066C72.7214 56.121 70.1916 58.2458 68.7406 60.835C84.6545 65.1438 83.6903 82.7447 83.3562 96.4618L98.3822 95.9183L100.129 80.284C100.32 79.6713 101.79 79.8195 102.334 79.8788C102.649 79.9084 102.955 79.9875 103.251 80.0962C103.585 82.6064 102.917 85.2945 102.688 87.8145C102.43 90.6409 102.363 93.7935 101.943 96.5606C101.695 98.2308 101.657 99.4266 99.7378 99.644C97.819 99.8614 94.9837 99.8021 92.9026 99.8911C88.1007 100.089 83.0316 99.8515 78.2679 100.118C76.1677 100.237 73.3038 100.375 71.9004 102.184L71.8909 102.174ZM24.1111 65.7664C22.6028 66.1123 22.1254 68.4644 21.8868 69.8183C21.5908 71.528 21.3713 74.1074 21.3331 75.8368C21.2853 78.4162 21.2376 80.7485 23.882 81.7565C33.3616 85.3636 38.8889 72.8028 31.0895 67.7133C29.648 66.7745 25.7053 65.4008 24.1111 65.7763V65.7664Z" fill="#FF4255"/>
</svg>
