<svg width="2410" height="907" viewBox="0 0 2410 907" fill="none" xmlns="http://www.w3.org/2000/svg">
<path d="M1011.93 588.701H837.992V327.37H1011.93V369.402H887.322V546.669H1011.93V588.701ZM1005.35 477.59H883.668V435.192H1005.35V477.59Z" fill="#242424"/>
<path d="M1148.4 588.701H1101.63L1027.82 404.49H1077.88L1130.5 554.71H1121.36L1174.35 404.49H1221.85L1148.4 588.701Z" fill="#242424"/>
<path d="M1381.48 532.415L1406.69 562.751C1396.95 573.229 1385.38 581.148 1371.98 586.508C1358.82 591.869 1344.57 594.549 1329.22 594.549C1309.01 594.549 1291.34 590.407 1276.24 582.122C1261.14 573.838 1249.32 562.385 1240.8 547.765C1232.51 532.902 1228.37 515.967 1228.37 496.961C1228.37 478.199 1232.39 461.386 1240.43 446.522C1248.47 431.659 1259.55 419.963 1273.68 411.434C1287.81 402.906 1303.77 398.642 1321.55 398.642C1338.12 398.642 1352.85 402.784 1365.77 411.069C1378.68 419.353 1388.79 430.806 1396.09 445.426C1403.65 459.802 1407.42 476.249 1407.42 494.768V496.961H1360.28V492.21C1360.28 474.422 1356.87 460.777 1350.05 451.274C1343.23 441.771 1333.37 437.019 1320.46 437.019C1311.69 437.019 1304.01 439.334 1297.43 443.964C1291.1 448.593 1286.11 455.416 1282.45 464.432C1279.04 473.204 1277.34 483.681 1277.34 495.865C1277.34 508.292 1279.41 519.013 1283.55 528.029C1287.69 537.044 1293.66 543.989 1301.45 548.862C1309.49 553.735 1319.36 556.172 1331.05 556.172C1341.77 556.172 1351.27 554.101 1359.55 549.958C1368.08 545.816 1375.39 539.968 1381.48 532.415ZM1407.42 511.216H1259.43V480.148H1401.58L1407.42 494.768V511.216Z" fill="#242424"/>
<path d="M1612.79 588.701H1564.56V482.341C1564.56 467.965 1561.64 457.244 1555.79 450.177C1550.19 442.867 1542.51 439.212 1532.77 439.212C1525.46 439.212 1518.64 441.283 1512.31 445.426C1506.22 449.568 1501.22 456.025 1497.32 464.797C1493.43 473.569 1491.48 485.021 1491.48 499.154V588.701H1443.24V404.49H1491.11V461.873H1485.27C1487.21 445.304 1491.36 432.511 1497.69 423.496C1504.27 414.236 1511.94 407.779 1520.71 404.124C1529.48 400.469 1538.13 398.642 1546.65 398.642C1567.12 398.642 1583.19 405.464 1594.89 419.11C1606.82 432.511 1612.79 451.883 1612.79 477.224V588.701Z" fill="#242424"/>
<path d="M1758.19 588.701H1714.71C1698.39 588.701 1686.21 584.559 1678.17 576.274C1670.13 567.746 1666.11 555.075 1666.11 538.262V356.244H1714.34V529.856C1714.34 536.435 1715.68 541.308 1718.36 544.476C1721.04 547.4 1725.43 548.862 1731.52 548.862H1758.19V588.701ZM1756.37 443.964H1636.88V404.49H1756.37V443.964Z" fill="#242424"/>
<path d="M1946.49 588.701H1904.11V551.42L1901.91 545.938V476.859C1901.91 463.944 1898.14 453.954 1890.59 446.888C1883.04 439.821 1872.44 436.288 1858.8 436.288C1841.01 436.288 1824.69 443.355 1809.83 457.487L1784.62 428.247C1806.79 408.51 1832.97 398.642 1863.18 398.642C1880.23 398.642 1894.97 401.81 1907.4 408.145C1919.82 414.48 1929.44 423.374 1936.26 434.826C1943.08 446.279 1946.49 459.924 1946.49 475.762V588.701ZM1846.01 594.549C1832.37 594.549 1820.55 592.113 1810.56 587.239C1800.58 582.122 1792.78 575.056 1787.18 566.04C1781.57 557.025 1778.77 546.547 1778.77 534.608C1778.77 515.602 1786.2 500.86 1801.06 490.382C1816.17 479.661 1836.87 474.3 1863.18 474.3H1905.2V505.002H1866.47C1854.05 505.002 1844.3 507.439 1837.24 512.312C1830.17 517.185 1826.64 524.008 1826.64 532.78C1826.64 540.334 1829.44 546.547 1835.05 551.42C1840.89 556.294 1848.32 558.73 1857.34 558.73C1866.1 558.73 1874.02 556.781 1881.09 552.882C1888.15 548.74 1893.88 543.258 1898.26 536.435C1902.65 529.369 1905.2 521.328 1905.93 512.312L1918.36 518.526C1918.36 533.633 1915.31 546.913 1909.22 558.365C1903.13 569.574 1894.61 578.467 1883.64 585.046C1872.93 591.382 1860.38 594.549 1846.01 594.549Z" fill="#242424"/>
<path d="M2037.29 588.701H1989.06V404.49H2037.29V588.701ZM2042.41 344.913C2042.41 352.954 2039.6 359.777 2034 365.381C2028.4 370.986 2021.33 373.788 2012.81 373.788C2004.52 373.788 1997.58 370.986 1991.98 365.381C1986.38 359.777 1983.57 352.954 1983.57 344.913C1983.57 336.873 1986.38 330.05 1991.98 324.446C1997.58 318.841 2004.52 316.039 2012.81 316.039C2021.33 316.039 2028.4 318.841 2034 324.446C2039.6 330.05 2042.41 336.873 2042.41 344.913Z" fill="#242424"/>
<path d="M2216.12 588.701V545.572L2215.76 543.014V497.692C2215.76 485.996 2213.81 475.762 2209.91 466.99C2206.02 458.218 2200.53 451.517 2193.47 446.888C2186.65 442.014 2178.73 439.578 2169.72 439.578C2160.22 439.578 2151.94 442.014 2144.87 446.888C2137.81 451.761 2132.32 458.584 2128.43 467.356C2124.53 475.884 2122.58 485.631 2122.58 496.596C2122.58 507.804 2124.53 517.673 2128.43 526.201C2132.57 534.729 2138.29 541.552 2145.6 546.669C2152.91 551.542 2161.44 553.979 2171.18 553.979C2179.22 553.979 2186.53 552.273 2193.1 548.862C2199.93 545.207 2205.53 540.212 2209.91 533.877C2214.3 527.541 2216.98 520.231 2217.95 511.947L2228.55 518.526C2229.28 532.415 2226.84 545.207 2221.24 556.903C2215.64 568.355 2207.48 577.493 2196.76 584.315C2186.28 591.138 2173.62 594.549 2158.76 594.549C2142.92 594.549 2128.43 590.407 2115.27 582.122C2102.36 573.838 2092.01 562.385 2084.21 547.765C2076.42 532.902 2072.52 515.845 2072.52 496.596C2072.52 477.346 2076.42 460.411 2084.21 445.791C2092.25 430.928 2102.85 419.353 2116 411.069C2129.16 402.784 2143.65 398.642 2159.49 398.642C2172.4 398.642 2183.6 401.444 2193.1 407.048C2202.85 412.409 2210.64 419.841 2216.49 429.344C2222.58 438.847 2226.23 449.69 2227.45 461.873H2215.76V325.542H2263.99V588.701H2216.12Z" fill="#242424"/>
<g clip-path="url(#clip0_525_10381)">
<path d="M643.819 422.999H489.858C487.914 423.023 486.035 422.375 484.613 421.187C483.19 420 482.335 418.366 482.224 416.627C482.153 415.01 482.448 413.397 483.09 411.884C483.732 410.372 484.708 408.991 485.96 407.825C487.212 406.659 488.714 405.731 490.376 405.098C492.038 404.465 493.825 404.14 495.631 404.141H500.402C509.453 404.13 518.13 400.899 524.526 395.158C530.922 389.418 534.515 381.636 534.515 373.524V369.846C534.515 361.737 530.92 353.961 524.523 348.227C518.126 342.493 509.449 339.272 500.402 339.272H497.444C494.913 339.272 492.486 338.371 490.696 336.767C488.907 335.163 487.902 332.988 487.902 330.719V329.052C487.902 326.784 488.907 324.608 490.696 323.004C492.486 321.401 494.913 320.499 497.444 320.499H508.083C517.13 320.499 525.807 317.278 532.204 311.544C538.602 305.811 542.196 298.034 542.196 289.925V286.248C542.197 280.015 540.073 273.93 536.108 268.809C532.143 263.689 526.526 259.777 520.011 257.597C517.154 256.581 514.711 254.809 513.007 252.517C511.302 250.226 510.417 247.523 510.469 244.769V244.213C510.49 241.782 511.207 239.396 512.552 237.284C513.897 235.173 515.825 233.407 518.15 232.154C523.259 229.348 527.477 225.413 530.402 220.726C533.326 216.038 534.857 210.756 534.848 205.386V203.376C534.849 198.548 533.61 193.784 531.227 189.453C528.844 185.123 525.382 181.342 521.108 178.403C519.789 177.505 518.717 176.348 517.973 175.021C517.229 173.695 516.832 172.234 516.814 170.749V157.92C516.852 156.156 517.445 154.437 518.526 152.962C519.606 151.487 521.13 150.315 522.921 149.582C528.832 146.978 533.811 142.941 537.294 137.931C540.776 132.92 542.623 127.135 542.625 121.231V119.435C542.638 115.293 541.737 111.19 539.974 107.362C538.212 103.533 535.622 100.054 532.354 97.1255C529.087 94.1968 525.206 91.8758 520.934 90.296C516.662 88.7162 512.084 87.9088 507.463 87.92H484.8C475.5 87.92 466.581 91.2314 460.004 97.1256C453.428 103.02 449.733 111.014 449.733 119.35V121.188C449.741 127.091 451.59 132.874 455.072 137.884C458.554 142.894 463.53 146.931 469.438 149.539C471.229 150.272 472.752 151.444 473.833 152.919C474.913 154.394 475.507 156.113 475.545 157.878V162.154C475.545 164.683 474.424 167.108 472.429 168.897C470.433 170.685 467.727 171.69 464.905 171.69H427.063C417.674 171.871 408.732 175.314 402.122 181.292C395.512 187.27 391.751 195.316 391.634 203.732C391.516 212.147 395.051 220.837 401.491 226.962C407.932 233.086 418.462 236.167 427.843 236.559C428.27 236.561 434.308 236.681 434.657 236.901C435.955 237.723 437.014 238.812 437.745 240.077C438.475 241.342 438.856 242.746 438.855 244.17V248.104C438.855 249.07 438.643 250.027 438.231 250.919C437.818 251.811 437.214 252.622 436.452 253.305C435.69 253.988 434.785 254.53 433.79 254.899C432.794 255.269 431.727 255.459 430.649 255.459H346.202C337.155 255.459 328.478 258.681 322.081 264.414C315.684 270.148 312.089 277.925 312.089 286.034V289.711C312.089 297.82 315.684 305.597 322.081 311.331C328.478 317.064 337.155 320.286 346.202 320.286H347.156C348.959 320.286 350.743 320.604 352.408 321.224C354.072 321.843 355.584 322.751 356.856 323.895C358.128 325.039 359.135 326.397 359.821 327.891C360.506 329.385 360.856 330.986 360.849 332.601V334.226C360.849 335.541 360.266 336.803 359.228 337.733C358.19 338.664 356.783 339.186 355.315 339.186H221.202C212.15 339.186 203.468 342.406 197.063 348.139C190.658 353.871 187.054 361.648 187.041 369.761V373.438C187.003 377.482 187.859 381.493 189.558 385.24C191.257 388.987 193.767 392.395 196.942 395.269C200.117 398.143 203.895 400.425 208.059 401.984C212.222 403.543 216.689 404.349 221.202 404.355H251.45L252.833 407.391C253.985 409.944 254.459 412.702 254.219 415.448C253.979 418.193 253.031 420.851 251.45 423.212H167.098C162.614 423.212 158.175 424.005 154.033 425.544C149.891 427.083 146.128 429.339 142.96 432.183C139.792 435.026 137.28 438.402 135.568 442.116C133.857 445.831 132.979 449.811 132.985 453.83V457.464C132.979 461.483 133.857 465.463 135.568 469.178C137.28 472.892 139.792 476.268 142.96 479.111C146.128 481.955 149.891 484.211 154.033 485.75C158.175 487.289 162.614 488.081 167.098 488.081H406.842C409.25 488.031 411.609 488.701 413.545 489.987C415.48 491.272 416.882 493.1 417.529 495.18C417.921 496.573 417.953 498.028 417.623 499.433C417.293 500.839 416.61 502.159 415.626 503.293C414.642 504.426 413.382 505.344 411.943 505.976C410.503 506.608 408.922 506.937 407.319 506.939H299.828C290.772 506.951 282.09 510.18 275.687 515.919C269.283 521.659 265.68 529.44 265.667 537.556V541.191C265.68 549.304 269.285 557.081 275.69 562.813C282.095 568.546 290.776 571.766 299.828 571.766H315.62C317.486 571.765 319.277 572.417 320.614 573.583C321.951 574.75 322.727 576.337 322.777 578.009C322.828 579.677 322.505 581.338 321.828 582.892C321.151 584.447 320.132 585.864 318.834 587.06C317.535 588.256 315.982 589.206 314.266 589.855C312.551 590.504 310.707 590.838 308.845 590.837H299.828C290.776 590.837 282.095 594.057 275.69 599.79C269.285 605.522 265.68 613.299 265.667 621.412V625.089C265.68 633.202 269.285 640.978 275.69 646.711C282.095 652.444 290.776 655.663 299.828 655.663V664.216C299.834 665.561 299.544 666.895 298.974 668.14C298.404 669.385 297.565 670.517 296.505 671.47C295.446 672.424 294.186 673.18 292.8 673.697C291.413 674.213 289.927 674.479 288.425 674.479C279.374 674.479 270.692 677.698 264.287 683.431C257.882 689.164 254.277 696.94 254.265 705.053V707.747C254.263 712.525 255.473 717.24 257.804 721.537C260.135 725.833 263.526 729.599 267.719 732.549C269.472 733.827 270.877 735.446 271.827 737.284C272.778 739.121 273.249 741.128 273.206 743.153V750.722C273.183 752.967 272.467 755.163 271.136 757.065C269.806 758.968 267.913 760.502 265.667 761.498C259.905 764.148 255.073 768.175 251.705 773.133C248.337 778.091 246.564 783.788 246.583 789.592V792.243C246.577 796.262 247.455 800.243 249.166 803.957C250.878 807.671 253.39 811.047 256.558 813.891C259.726 816.734 263.489 818.99 267.631 820.529C271.773 822.068 276.212 822.861 280.696 822.861H305.219C309.707 822.866 314.152 822.078 318.299 820.542C322.447 819.005 326.215 816.75 329.388 813.906C332.562 811.061 335.078 807.684 336.792 803.967C338.507 800.25 339.386 796.266 339.38 792.243V789.592C339.377 784.281 337.881 779.055 335.029 774.399C332.177 769.742 328.062 765.805 323.063 762.952C321.07 761.796 319.429 760.213 318.287 758.347C317.146 756.481 316.541 754.39 316.527 752.262V751.15C316.527 747.963 317.939 744.907 320.453 742.653C322.967 740.4 326.378 739.134 329.933 739.134H357.033C366.089 739.123 374.77 735.893 381.174 730.154C387.577 724.414 391.18 716.633 391.193 708.517V705.823C391.185 701.542 390.209 697.308 388.323 693.376C386.437 689.444 383.68 685.895 380.22 682.945C378.862 681.821 377.776 680.46 377.029 678.945C376.282 677.429 375.891 675.793 375.878 674.136V667.423C375.872 665.841 376.214 664.274 376.885 662.811C377.556 661.349 378.542 660.019 379.788 658.899C381.033 657.778 382.513 656.889 384.143 656.283C385.773 655.676 387.52 655.364 389.285 655.364H436.231C445.283 655.364 453.965 652.144 460.37 646.412C466.775 640.679 470.379 632.902 470.392 624.79V621.112C470.379 613 466.775 605.223 460.37 599.49C453.965 593.758 445.283 590.538 436.231 590.538H429.218V571.637H578.169C587.213 571.66 595.897 568.468 602.319 562.76C608.74 557.053 612.375 549.297 612.425 541.191V538.497C612.419 533.302 610.983 528.187 608.245 523.608C605.507 519.028 601.552 515.124 596.729 512.242C595.068 511.21 593.716 509.828 592.792 508.217C591.869 506.606 591.402 504.816 591.433 503.005V500.055C591.433 496.868 592.845 493.812 595.36 491.558C597.874 489.305 601.284 488.039 604.839 488.039H643.914C648.398 488.039 652.838 487.246 656.979 485.707C661.121 484.168 664.884 481.912 668.052 479.069C671.221 476.225 673.732 472.849 675.444 469.135C677.155 465.421 678.033 461.44 678.027 457.422V453.787C678.058 449.747 677.196 445.741 675.49 442.001C673.784 438.261 671.267 434.862 668.087 431.999C664.906 429.136 661.123 426.866 656.958 425.322C652.792 423.777 648.326 422.987 643.819 422.999Z" fill="url(#paint0_linear_525_10381)"/>
</g>
<defs>
<linearGradient id="paint0_linear_525_10381" x1="678.028" y1="455.39" x2="132.985" y2="455.39" gradientUnits="userSpaceOnUse">
<stop offset="0.0001" stop-color="#F95F5F"/>
<stop offset="0.265587" stop-color="#FB3838"/>
<stop offset="0.453087" stop-color="#E81D1D"/>
<stop offset="0.640587" stop-color="#FC3131"/>
<stop offset="0.996357" stop-color="#F95F5F"/>
</linearGradient>
<clipPath id="clip0_525_10381">
<rect width="745.993" height="735.497" fill="white" transform="translate(42 86)"/>
</clipPath>
</defs>
</svg>
