<svg width="2410" height="907" viewBox="0 0 2410 907" fill="none" xmlns="http://www.w3.org/2000/svg">
<path d="M969 587.551H776V297.551H969V344.194H830.736V540.908H969V587.551ZM961.699 464.25H826.682V417.201H961.699V464.25Z" fill="#EFEFEF"/>
<path d="M1121.23 587.551H1069.17L987 382.551H1042.73L1101.31 549.724H1091.13L1150.12 382.551H1203L1121.23 587.551Z" fill="#EFEFEF"/>
<path d="M1380.17 525.41L1408.19 559.167C1397.36 570.826 1384.5 579.638 1369.61 585.603C1354.98 591.569 1339.15 594.551 1322.09 594.551C1299.62 594.551 1279.99 589.942 1263.2 580.722C1246.42 571.504 1233.28 558.76 1223.82 542.491C1214.6 525.952 1210 507.107 1210 485.957C1210 465.08 1214.47 446.371 1223.4 429.83C1232.34 413.291 1244.65 400.276 1260.36 390.785C1276.06 381.296 1293.8 376.551 1313.56 376.551C1331.98 376.551 1348.35 381.16 1362.71 390.379C1377.06 399.597 1388.29 412.342 1396.41 428.611C1404.81 444.608 1409 462.91 1409 483.517V485.957H1356.61V480.671C1356.61 460.877 1352.82 445.693 1345.24 435.118C1337.66 424.544 1326.7 419.256 1312.35 419.256C1302.6 419.256 1294.07 421.832 1286.75 426.984C1279.72 432.135 1274.17 439.727 1270.11 449.76C1266.32 459.521 1264.43 471.18 1264.43 484.738C1264.43 498.566 1266.73 510.496 1271.33 520.529C1275.93 530.561 1282.56 538.289 1291.22 543.712C1300.16 549.134 1311.13 551.846 1324.12 551.846C1336.04 551.846 1346.59 549.541 1355.8 544.931C1365.28 540.322 1373.4 533.814 1380.17 525.41ZM1409 501.82H1244.52V467.248H1402.51L1409 483.517V501.82Z" fill="#EFEFEF"/>
<path d="M1637 587.551H1583.52V469.472C1583.52 453.512 1580.28 441.61 1573.8 433.764C1567.59 425.649 1559.07 421.591 1548.27 421.591C1540.17 421.591 1532.6 423.89 1525.59 428.49C1518.83 433.088 1513.29 440.256 1508.96 449.995C1504.65 459.733 1502.49 472.447 1502.49 488.137V587.551H1449V383.043H1502.08V446.749H1495.6C1497.75 428.354 1502.36 414.152 1509.38 404.143C1516.67 393.863 1525.18 386.695 1534.9 382.637C1544.62 378.579 1554.22 376.551 1563.66 376.551C1586.36 376.551 1604.18 384.124 1617.15 399.274C1630.38 414.152 1637 435.658 1637 463.791V587.551Z" fill="#EFEFEF"/>
<path d="M1799 587.551H1750.61C1732.45 587.551 1718.9 582.954 1709.95 573.758C1701 564.293 1696.53 550.23 1696.53 531.569V329.551H1750.2V522.24C1750.2 529.542 1751.69 534.95 1754.68 538.466C1757.66 541.712 1762.54 543.334 1769.32 543.334H1799V587.551ZM1796.97 426.91H1664V383.098H1796.97V426.91Z" fill="#EFEFEF"/>
<path d="M2008 588.043H1961V546.558L1958.56 540.458V463.589C1958.56 449.217 1954.38 438.1 1946.01 430.238C1937.63 422.374 1925.88 418.442 1910.75 418.442C1891.02 418.442 1872.92 426.306 1856.45 442.032L1828.49 409.494C1853.07 387.532 1882.11 376.551 1915.61 376.551C1934.52 376.551 1950.86 380.076 1964.65 387.125C1978.42 394.175 1989.09 404.072 1996.66 416.815C2004.22 429.56 2008 444.744 2008 462.368V588.043ZM1896.57 594.551C1881.44 594.551 1868.33 591.84 1857.25 586.416C1846.19 580.722 1837.54 572.859 1831.33 562.827C1825.11 552.795 1822 541.135 1822 527.85C1822 506.701 1830.24 490.296 1846.72 478.637C1863.48 466.707 1886.43 460.741 1915.61 460.741H1962.21V494.905H1919.26C1905.48 494.905 1894.67 497.617 1886.84 503.04C1879 508.462 1875.09 516.055 1875.09 525.816C1875.09 534.222 1878.19 541.135 1884.41 546.558C1890.89 551.982 1899.13 554.692 1909.13 554.692C1918.85 554.692 1927.63 552.524 1935.47 548.185C1943.3 543.576 1949.66 537.476 1954.51 529.883C1959.38 522.02 1962.21 513.072 1963.02 503.04L1976.8 509.954C1976.8 526.765 1973.42 541.543 1966.67 554.286C1959.91 566.759 1950.47 576.655 1938.3 583.976C1926.42 591.027 1912.5 594.551 1896.57 594.551Z" fill="#EFEFEF"/>
<path d="M2109.26 587.551H2055.16V382.843H2109.26V587.551ZM2115 316.637C2115 325.573 2111.85 333.155 2105.57 339.383C2099.29 345.612 2091.35 348.725 2081.8 348.725C2072.5 348.725 2064.71 345.612 2058.43 339.383C2052.15 333.155 2049 325.573 2049 316.637C2049 307.703 2052.15 300.121 2058.43 293.893C2064.71 287.665 2072.5 284.551 2081.8 284.551C2091.35 284.551 2099.29 287.665 2105.57 293.893C2111.85 300.121 2115 307.703 2115 316.637Z" fill="#EFEFEF"/>
<path d="M2307.75 588.051V540.113L2307.35 537.27V486.895C2307.35 473.895 2305.18 462.52 2300.84 452.77C2296.51 443.02 2290.4 435.571 2282.55 430.426C2274.96 425.009 2266.15 422.301 2256.13 422.301C2245.56 422.301 2236.35 425.009 2228.49 430.426C2220.63 435.843 2214.52 443.426 2210.2 453.176C2205.86 462.655 2203.69 473.489 2203.69 485.676C2203.69 498.134 2205.86 509.103 2210.2 518.582C2214.8 528.061 2221.17 535.645 2229.3 541.332C2237.43 546.749 2246.92 549.457 2257.75 549.457C2266.7 549.457 2274.83 547.561 2282.14 543.77C2289.74 539.707 2295.97 534.155 2300.84 527.114C2305.72 520.072 2308.7 511.947 2309.78 502.739L2321.57 510.052C2322.39 525.489 2319.67 539.707 2313.44 552.707C2307.21 565.436 2298.14 575.593 2286.21 583.176C2274.55 590.759 2260.47 594.551 2243.94 594.551C2226.32 594.551 2210.2 589.947 2195.56 580.738C2181.2 571.531 2169.68 558.801 2161 542.551C2152.34 526.03 2148 507.072 2148 485.676C2148 464.28 2152.34 445.457 2161 429.207C2169.95 412.687 2181.74 399.821 2196.37 390.614C2211.01 381.405 2227.13 376.801 2244.75 376.801C2259.11 376.801 2271.57 379.915 2282.14 386.144C2292.99 392.103 2301.65 400.364 2308.16 410.926C2314.93 421.489 2318.99 433.541 2320.35 447.082H2307.35V295.551H2361V588.051H2307.75Z" fill="#EFEFEF"/>
<mask id="mask0_625_10472" style="mask-type:luminance" maskUnits="userSpaceOnUse" x="4" y="86" width="746" height="736">
<path d="M749.993 86H4V821.497H749.993V86Z" fill="white"/>
</mask>
<g mask="url(#mask0_625_10472)">
<path d="M605.818 422.999H451.857C449.913 423.023 448.034 422.375 446.612 421.187C445.189 420 444.334 418.366 444.223 416.627C444.152 415.01 444.447 413.397 445.089 411.884C445.731 410.372 446.707 408.991 447.959 407.825C449.211 406.659 450.713 405.731 452.375 405.098C454.037 404.465 455.824 404.14 457.63 404.141H462.401C471.452 404.13 480.129 400.899 486.525 395.158C492.921 389.418 496.514 381.636 496.514 373.524V369.846C496.514 361.737 492.919 353.961 486.522 348.227C480.125 342.493 471.448 339.272 462.401 339.272H459.443C456.912 339.272 454.485 338.371 452.695 336.767C450.906 335.163 449.901 332.988 449.901 330.719V329.052C449.901 326.784 450.906 324.608 452.695 323.004C454.485 321.401 456.912 320.499 459.443 320.499H470.082C479.129 320.499 487.806 317.278 494.203 311.544C500.601 305.811 504.195 298.034 504.195 289.925V286.248C504.196 280.015 502.072 273.93 498.107 268.809C494.142 263.689 488.525 259.777 482.01 257.597C479.153 256.581 476.71 254.809 475.006 252.517C473.301 250.226 472.416 247.523 472.468 244.769V244.213C472.489 241.782 473.206 239.396 474.551 237.284C475.896 235.173 477.824 233.407 480.149 232.154C485.258 229.348 489.476 225.413 492.401 220.726C495.325 216.038 496.856 210.756 496.847 205.386V203.376C496.848 198.548 495.609 193.784 493.226 189.453C490.843 185.123 487.381 181.342 483.107 178.403C481.788 177.505 480.716 176.348 479.972 175.021C479.228 173.695 478.831 172.234 478.813 170.749V157.92C478.851 156.156 479.444 154.437 480.525 152.962C481.605 151.487 483.129 150.315 484.92 149.582C490.831 146.978 495.81 142.941 499.293 137.931C502.775 132.92 504.622 127.135 504.624 121.231V119.435C504.637 115.293 503.736 111.19 501.973 107.362C500.211 103.533 497.621 100.054 494.353 97.1255C491.086 94.1968 487.205 91.8758 482.933 90.296C478.661 88.7162 474.083 87.9088 469.462 87.92H446.799C437.499 87.92 428.58 91.2314 422.003 97.1256C415.427 103.02 411.732 111.014 411.732 119.35V121.188C411.74 127.091 413.589 132.874 417.071 137.884C420.553 142.894 425.529 146.931 431.437 149.539C433.228 150.272 434.751 151.444 435.832 152.919C436.912 154.394 437.506 156.113 437.544 157.878V162.154C437.544 164.683 436.423 167.108 434.428 168.897C432.432 170.685 429.726 171.69 426.904 171.69H389.062C379.673 171.871 370.731 175.314 364.121 181.292C357.511 187.27 353.75 195.316 353.633 203.732C353.515 212.147 357.05 220.837 363.49 226.962C369.931 233.086 380.461 236.167 389.842 236.559C390.269 236.561 396.307 236.681 396.656 236.901C397.954 237.723 399.013 238.812 399.744 240.077C400.474 241.342 400.855 242.746 400.854 244.17V248.104C400.854 249.07 400.642 250.027 400.23 250.919C399.817 251.811 399.213 252.622 398.451 253.305C397.689 253.988 396.784 254.53 395.789 254.899C394.793 255.269 393.726 255.459 392.648 255.459H308.201C299.154 255.459 290.477 258.681 284.08 264.414C277.683 270.148 274.088 277.925 274.088 286.034V289.711C274.088 297.82 277.683 305.597 284.08 311.331C290.477 317.064 299.154 320.286 308.201 320.286H309.155C310.958 320.286 312.742 320.604 314.407 321.224C316.071 321.843 317.583 322.751 318.855 323.895C320.127 325.039 321.134 326.397 321.82 327.891C322.505 329.385 322.855 330.986 322.848 332.601V334.226C322.848 335.541 322.265 336.803 321.227 337.733C320.189 338.664 318.782 339.186 317.314 339.186H183.201C174.149 339.186 165.467 342.406 159.062 348.139C152.657 353.871 149.053 361.648 149.04 369.761V373.438C149.002 377.482 149.858 381.493 151.557 385.24C153.256 388.987 155.766 392.395 158.941 395.269C162.116 398.143 165.894 400.425 170.058 401.984C174.221 403.543 178.688 404.349 183.201 404.355H213.449L214.832 407.391C215.984 409.944 216.458 412.702 216.218 415.448C215.978 418.193 215.03 420.851 213.449 423.212H129.097C124.613 423.212 120.174 424.005 116.032 425.544C111.89 427.083 108.127 429.339 104.959 432.183C101.791 435.026 99.2794 438.402 97.5674 442.116C95.8564 445.831 94.9784 449.811 94.9844 453.83V457.464C94.9784 461.483 95.8564 465.463 97.5674 469.178C99.2794 472.892 101.791 476.268 104.959 479.111C108.127 481.955 111.89 484.211 116.032 485.75C120.174 487.289 124.613 488.081 129.097 488.081H368.841C371.249 488.031 373.608 488.701 375.544 489.987C377.479 491.272 378.881 493.1 379.528 495.18C379.92 496.573 379.952 498.028 379.622 499.433C379.292 500.839 378.609 502.159 377.625 503.293C376.641 504.426 375.381 505.344 373.942 505.976C372.502 506.608 370.921 506.937 369.318 506.939H261.827C252.771 506.951 244.089 510.18 237.686 515.919C231.282 521.659 227.679 529.44 227.666 537.556V541.191C227.679 549.304 231.284 557.081 237.689 562.813C244.094 568.546 252.775 571.766 261.827 571.766H277.619C279.485 571.765 281.276 572.417 282.613 573.583C283.95 574.75 284.726 576.337 284.776 578.009C284.827 579.677 284.504 581.338 283.827 582.892C283.15 584.447 282.131 585.864 280.833 587.06C279.534 588.256 277.981 589.206 276.265 589.855C274.55 590.504 272.706 590.838 270.844 590.837H261.827C252.775 590.837 244.094 594.057 237.689 599.79C231.284 605.522 227.679 613.299 227.666 621.412V625.089C227.679 633.202 231.284 640.978 237.689 646.711C244.094 652.444 252.775 655.663 261.827 655.663V664.216C261.833 665.561 261.543 666.895 260.973 668.14C260.403 669.385 259.564 670.517 258.504 671.47C257.445 672.424 256.185 673.18 254.799 673.697C253.412 674.213 251.926 674.479 250.424 674.479C241.373 674.479 232.691 677.698 226.286 683.431C219.881 689.164 216.276 696.94 216.264 705.053V707.747C216.262 712.525 217.472 717.24 219.803 721.537C222.134 725.833 225.525 729.599 229.718 732.549C231.471 733.827 232.876 735.446 233.826 737.284C234.777 739.121 235.248 741.128 235.205 743.153V750.722C235.182 752.967 234.466 755.163 233.135 757.065C231.805 758.968 229.912 760.502 227.666 761.498C221.904 764.148 217.072 768.175 213.704 773.133C210.336 778.091 208.563 783.788 208.582 789.592V792.243C208.576 796.262 209.454 800.243 211.165 803.957C212.877 807.671 215.389 811.047 218.557 813.891C221.725 816.734 225.488 818.99 229.63 820.529C233.772 822.068 238.211 822.861 242.695 822.861H267.218C271.706 822.866 276.151 822.078 280.298 820.542C284.446 819.005 288.214 816.75 291.387 813.906C294.561 811.061 297.077 807.684 298.791 803.967C300.506 800.25 301.385 796.266 301.379 792.243V789.592C301.376 784.281 299.88 779.055 297.028 774.399C294.176 769.742 290.061 765.805 285.062 762.952C283.069 761.796 281.428 760.213 280.286 758.347C279.145 756.481 278.54 754.39 278.526 752.262V751.15C278.526 747.963 279.938 744.907 282.452 742.653C284.966 740.4 288.377 739.134 291.932 739.134H319.032C328.088 739.123 336.769 735.893 343.173 730.154C349.576 724.414 353.179 716.633 353.192 708.517V705.823C353.184 701.542 352.208 697.308 350.322 693.376C348.436 689.444 345.679 685.895 342.219 682.945C340.861 681.821 339.775 680.46 339.028 678.945C338.281 677.429 337.89 675.793 337.877 674.136V667.423C337.871 665.841 338.213 664.274 338.884 662.811C339.555 661.349 340.541 660.019 341.787 658.899C343.032 657.778 344.512 656.889 346.142 656.283C347.772 655.676 349.519 655.364 351.284 655.364H398.23C407.282 655.364 415.964 652.144 422.369 646.412C428.774 640.679 432.378 632.902 432.391 624.79V621.112C432.378 613 428.774 605.223 422.369 599.49C415.964 593.758 407.282 590.538 398.23 590.538H391.217V571.637H540.168C549.212 571.66 557.896 568.468 564.318 562.76C570.739 557.053 574.374 549.297 574.424 541.191V538.497C574.418 533.302 572.982 528.187 570.244 523.608C567.506 519.028 563.551 515.124 558.728 512.242C557.067 511.21 555.715 509.828 554.791 508.217C553.868 506.606 553.401 504.816 553.432 503.005V500.055C553.432 496.868 554.844 493.812 557.359 491.558C559.873 489.305 563.283 488.039 566.838 488.039H605.913C610.397 488.039 614.837 487.246 618.978 485.707C623.12 484.168 626.883 481.912 630.051 479.069C633.22 476.225 635.731 472.849 637.443 469.135C639.154 465.421 640.032 461.44 640.026 457.422V453.787C640.057 449.747 639.195 445.741 637.489 442.001C635.783 438.261 633.266 434.862 630.086 431.999C626.905 429.136 623.122 426.866 618.957 425.322C614.791 423.777 610.325 422.987 605.818 422.999Z" fill="url(#paint0_linear_625_10472)"/>
</g>
<defs>
<linearGradient id="paint0_linear_625_10472" x1="640.027" y1="455.39" x2="94.9844" y2="455.39" gradientUnits="userSpaceOnUse">
<stop offset="0.0001" stop-color="#F95F5F"/>
<stop offset="0.265587" stop-color="#FB3838"/>
<stop offset="0.453087" stop-color="#E81D1D"/>
<stop offset="0.640587" stop-color="#FC3131"/>
<stop offset="0.996357" stop-color="#F95F5F"/>
</linearGradient>
</defs>
</svg>
