<svg width="142" height="142" viewBox="0 0 142 142" fill="none" xmlns="http://www.w3.org/2000/svg">
<g clip-path="url(#clip0_585_11364)">
<path d="M73.6504 20.9912C79.726 20.743 85.5261 23.1574 88.6191 28.4717L88.9102 28.9951C89.3116 29.7503 89.6101 30.5234 89.8916 31.3086C90.102 31.8954 90.3039 32.4919 90.5312 33.0879L90.7686 33.6836C91.087 34.4376 91.4798 35.1502 91.8525 35.8574C92.1801 36.4788 92.4943 37.0984 92.7393 37.751L92.8398 38.0332C94.154 41.9328 93.674 46.1466 92.6621 50.0986L92.4531 50.8857C91.0213 56.1004 89.5707 59.9602 85.6719 63.6475L85.2861 64.0029C84.8387 64.4086 84.3684 64.7387 83.8994 65.1084C83.4931 65.4287 83.0968 65.7731 82.751 66.2051L82.6064 66.3945C80.4286 69.3889 80.5205 73.659 82.9053 76.5059L82.9521 76.5615L83.0244 76.5596C91.0753 76.3466 98.7263 80.1574 103.475 86.6094L103.925 87.2412C106.386 90.8137 107.834 94.9347 108.229 99.2646L108.295 100.134V125.026C108.218 126.063 107.45 126.782 106.424 126.851H36.0771C35.0942 126.833 34.2989 126.137 34.1504 125.154V100.18C34.4244 95.2889 36.0402 90.6188 38.8994 86.6914L38.9004 86.6924C43.6604 80.1694 51.3364 76.3402 59.4199 76.5508L59.4932 76.5527L59.5391 76.4961C61.7278 73.8565 61.9969 70.0561 60.2949 67.082L60.1641 67.1562L60.2949 67.0811H60.2939C59.84 66.2929 59.3568 65.7955 58.834 65.3574C58.5747 65.1402 58.3036 64.9367 58.0264 64.7217C57.7479 64.5057 57.4592 64.2757 57.1572 64.0029H57.1582C54.484 61.578 52.9333 58.9294 51.4062 55.8301L50.75 54.4736C47.5135 47.6882 47.8556 40.5495 51.8564 34.3193L52.2549 33.7197C56.998 26.8022 64.3904 21.6861 72.8301 21.04L73.6504 20.9912ZM64.8887 68.625C65.5931 71.895 64.9328 75.456 63.0117 78.1758L62.9355 78.2832L63.0332 78.373L71.1113 85.7744L71.2129 85.8662L71.3145 85.7744L79.3652 78.4375L79.3945 78.4111L79.4072 78.374C79.4282 78.3104 79.4127 78.2459 79.4023 78.21C79.3897 78.1663 79.3691 78.1189 79.3467 78.0723C79.3016 77.9785 79.2372 77.8688 79.1709 77.7617C79.1041 77.6539 79.0334 77.5441 78.9727 77.4512L78.8369 77.2393C77.4099 74.5688 76.9247 71.629 77.5742 68.6445L77.585 68.5928L77.5615 68.5459L77.5527 68.5273L77.4961 68.4131L77.374 68.4502C73.3819 69.6763 69.0718 69.6674 65.0791 68.4502L64.835 68.376L64.8887 68.625ZM64.3184 41.7051C63.3353 41.2593 62.3061 40.9249 61.2305 41.0156L60.7012 41.0596L60.7656 41.0918C60.6317 41.1176 60.4939 41.1504 60.3604 41.1934C60.0965 41.2782 59.8321 41.4063 59.6445 41.6035L59.5693 41.6914L59.5684 41.6934C59.3413 42.0006 59.2865 42.3379 59.2734 42.6621C59.267 42.8222 59.2704 42.9874 59.2705 43.1416C59.2706 43.2986 59.2671 43.4495 59.248 43.5957C59.0921 44.7308 58.5839 46.3673 58.1338 47.7686L57.7178 49.0645C57.0607 51.1539 56.3322 53.2295 55.4043 55.2021L55.375 55.2646L55.4023 55.3271C58.8513 63.1626 67.5975 67.2032 75.792 64.9424L76.1826 64.8291C81.3908 63.2578 85.7414 59.1685 87.5762 54.0078L87.5752 54.0068C87.6439 53.8175 87.7778 53.4494 87.8906 53.085C87.9471 52.9023 87.9998 52.7179 88.0361 52.5566C88.0625 52.4396 88.0821 52.325 88.0869 52.2285V52.1387C88.0765 52.0012 88.0334 51.813 87.9775 51.6084C87.9208 51.4006 87.8469 51.1658 87.7695 50.9307C87.691 50.6919 87.6105 50.4558 87.5381 50.2451L87.3584 49.71C87.0707 48.7935 86.6651 47.4928 86.208 46.2266C85.8091 45.1216 85.367 44.033 84.9258 43.2461L84.7373 42.9277L84.5938 42.7285C84.2594 42.3184 83.7741 42.0453 83.2207 42.0732L83.0918 42.085C82.9001 42.1091 82.6562 42.2022 82.3984 42.3223C82.1359 42.4446 81.8434 42.6025 81.5518 42.7666C81.1089 43.0158 80.6724 43.2759 80.3271 43.4609L80.0156 43.6182C75.9022 45.5046 72.032 45.0033 67.9883 43.4287L67.1768 43.1006V43.0996L66.8291 42.9473C66.4804 42.7879 66.1281 42.6094 65.7705 42.4258C65.2954 42.1817 64.8102 41.9281 64.3184 41.7051ZM77.1758 25.0039C73.6904 24.4271 69.8451 25.0613 66.5625 26.4385L65.9141 26.7236C63.1019 28.0187 60.1179 30.2347 57.6729 32.9043C55.3814 35.4063 53.5539 38.3174 52.79 41.2559L52.6514 41.8438C52.2022 43.9868 52.1887 47.1765 52.8691 49.4023L53.0146 49.835C53.0233 49.8629 53.0419 49.9304 53.0674 49.9805C53.1005 50.0455 53.1623 50.121 53.2744 50.1416L53.4053 50.166L53.4443 50.0381C54.0633 48.0093 54.7802 45.962 55.2842 43.8828C55.3934 43.435 55.4574 43.0102 55.5127 42.6055C55.5683 42.1986 55.6145 41.8162 55.6855 41.4404C55.8087 40.7886 56.0068 40.1677 56.46 39.5332L56.6699 39.2607C57.6886 38.0368 59.1889 37.4269 60.7881 37.2773C62.2878 37.1371 63.8633 37.4029 65.1807 37.9375L65.4404 38.0479C67.2969 38.8699 69.081 39.8505 70.9297 40.4639C72.6735 41.0424 74.4967 41.3041 76.5508 40.8252L76.9648 40.7197C77.7198 40.5106 78.3855 40.1997 79.0098 39.8721C79.6403 39.5412 80.2122 39.2022 80.8105 38.915C81.9159 38.3847 83.0588 38.0605 84.5781 38.4395L84.8867 38.5244C86.2496 38.9351 87.3215 39.8818 88.04 41.1064L88.1797 41.3555L89.5176 44.4053L89.5576 44.4941H89.8008L89.8135 44.3584C89.9267 43.1508 89.8636 41.8438 89.6289 40.6357L89.5176 40.125C89.3078 39.2505 88.9518 38.4705 88.5664 37.7139C88.2756 37.143 87.971 36.5901 87.6934 36.0137L87.4258 35.4277L87.2305 34.9541C87.0431 34.4777 86.8762 33.9908 86.708 33.502C86.5403 33.0144 86.3716 32.5246 86.1807 32.0469L85.9814 31.5732C84.2163 27.6203 80.8985 25.62 77.1758 25.0039ZM104.573 101.44C104.513 97.6755 103.58 94.0216 101.711 90.7793L101.324 90.1367C97.3939 83.8708 90.3806 80.102 82.9795 80.334L82.9238 80.335L82.8828 80.373L72.6035 89.7988C72.1012 90.2112 71.6425 90.395 71.1992 90.3877C70.8097 90.3812 70.4114 90.227 69.9854 89.9131L69.8008 89.7695C68.1471 88.4004 66.5492 86.8712 64.9531 85.3271C63.5578 83.9773 62.1635 82.6152 60.7383 81.3428L60.126 80.8037C60.0269 80.7168 59.9106 80.6067 59.79 80.5195C59.6983 80.4532 59.5937 80.3923 59.4775 80.3584L59.3584 80.334H59.3564C58.8639 80.2844 58.1664 80.3204 57.5693 80.3643L57.0176 80.4082C46.1908 81.3181 37.8435 90.5737 37.8711 101.517V123.031H104.573V101.44Z" fill="#FF4255" stroke="#F7F7F7" stroke-width="0.3"/>
<path d="M71.416 93.1514C76.8873 93.0569 80.5396 98.9832 78.0557 103.982L77.9307 104.225C77.4893 105.038 76.8788 105.677 76.248 106.336C75.6208 106.992 74.9736 107.667 74.4922 108.539C73.5336 110.275 73.5504 111.269 73.3701 113.095C73.2478 114.281 72.2884 114.909 71.373 114.846C70.9166 114.814 70.4723 114.61 70.1475 114.216C69.8226 113.821 69.6067 113.224 69.6328 112.392C69.7166 109.814 70.8078 107 72.4102 104.957L72.7373 104.559C72.9541 104.308 73.1958 104.071 73.4434 103.83C73.6895 103.59 73.9423 103.345 74.1729 103.085C74.5777 102.628 74.9233 102.113 75.0674 101.46L75.1162 101.171C75.3513 99.1332 74.1479 97.6695 72.6475 97.1484C71.1948 96.6441 69.4513 97.0199 68.4678 98.6045L68.375 98.7617C68.0322 99.374 67.9869 100.027 67.9043 100.589C67.8308 101.089 67.7289 101.527 67.4033 101.889L67.25 102.038C66.0943 103.028 64.3954 102.315 64.1826 100.839L64.167 100.693C64.0215 98.7733 64.8198 96.9554 66.1221 95.584C67.4248 94.2122 69.2228 93.2968 71.0586 93.1758L71.416 93.1514Z" fill="#FF4255" stroke="#F7F7F7" stroke-width="0.3"/>
<path d="M71.667 117.154C71.9112 117.161 72.1522 117.175 72.3574 117.198C72.566 117.222 72.7247 117.252 72.8135 117.286V117.287C73.5911 117.599 73.9238 118.43 73.8369 119.232C73.7553 119.986 73.3127 120.65 72.5918 120.796L72.4443 120.817C72.1719 120.843 71.6664 120.862 71.1719 120.841C70.9249 120.83 70.6837 120.81 70.4775 120.777C70.2671 120.744 70.1078 120.7 70.0156 120.648H70.0166C69.3405 120.271 69.0699 119.474 69.1699 118.718C69.2664 117.989 69.6978 117.358 70.3691 117.205L70.374 117.211L70.4561 117.197C70.6858 117.159 71.1751 117.141 71.667 117.154Z" fill="#FF4255" stroke="#F7F7F7" stroke-width="0.3"/>
</g>
<defs>
<clipPath id="clip0_585_11364">
<rect width="142" height="142" fill="white"/>
</clipPath>
</defs>
</svg>
