<svg width="142" height="142" viewBox="0 0 142 142" fill="none" xmlns="http://www.w3.org/2000/svg">
<g clip-path="url(#clip0_571_10312)">
<path d="M100.23 72.6898L86.3196 86.3098L52.6096 129.79C47.5196 134.96 38.9696 131.1 39.6996 123.75C39.8796 121.98 40.7296 120.84 41.6896 119.45C49.0596 108.74 57.2196 98.3198 64.8196 87.7398C64.9596 87.5398 66.0896 86.0498 65.9996 85.9598L26.8296 106.92C18.9396 109.61 13.3296 99.5498 19.7296 94.2298L66.6996 67.0298L80.7896 52.9498L55.3496 58.4898C48.4896 58.4298 46.3096 49.4798 52.3796 46.3098C61.5196 43.9698 70.7496 41.7498 79.9696 39.6798C84.2296 38.7198 87.5596 37.6298 91.6896 39.9498C92.9596 40.6598 95.2096 42.6498 96.0996 43.8098C97.1296 45.1498 96.3096 46.9198 94.5996 46.7098C93.5596 46.5898 92.0396 44.4798 91.1596 43.7498C88.7996 41.7998 86.5696 41.7798 83.7096 42.3498C73.7896 44.3398 63.8596 47.2198 53.9596 49.3898C51.2396 50.7298 51.9796 54.7398 55.0096 54.9898C65.4596 52.9198 75.8196 50.3998 86.2296 48.1198C87.6896 48.1398 88.4396 49.4798 87.8396 50.7798L68.9196 69.6998L22.1996 96.6798C18.3196 99.4398 21.2696 105.26 25.8496 103.59L71.1396 79.2498C72.6396 78.4198 74.3296 79.9198 73.6096 81.4898L43.5296 122.89C41.6196 127.11 46.7396 130.69 50.0696 127.45L83.6596 84.0798L102.11 65.8598C103.56 64.6598 105.37 65.7498 105.01 67.5998L97.8096 98.2298C98.0096 101.24 101.82 102.21 103.38 99.6098L111.21 68.0798C111.24 66.8998 111.24 65.8198 110.86 64.6898C109.78 61.4498 105.69 59.0598 103.75 56.4298C102.58 54.8398 104.15 53.9298 105.09 52.9998C110.18 47.9598 115.24 42.8898 120.34 37.8598C121.72 36.1698 121.7 33.6498 120.28 31.9798L110.56 22.1398C109.55 23.3698 107.89 24.5098 106.95 25.7398C106.44 26.3998 106.23 27.1598 106.34 27.9798C106.53 29.3498 108.14 29.9598 107.5 31.5298L101.71 37.3798C101.25 37.9598 101.12 38.2798 101.22 39.0398C101.32 39.7998 102.29 43.3698 102.65 43.8898C103.35 44.9098 105.45 44.9498 104.65 46.9498C103.64 49.4498 100.33 46.9098 99.5096 45.3998C98.9396 44.3598 97.6696 39.6398 97.6896 38.4898C97.7696 35.1698 101.73 32.9198 103.61 30.5498C102.64 28.5698 102.58 26.2798 103.7 24.3498C104.36 23.2098 108.14 19.4398 109.28 18.5198C110.05 17.8898 110.71 17.6898 111.61 18.2898L122.84 29.6498C125.44 32.7598 125.49 37.0498 122.9 40.1798L107.59 55.3698C109.81 57.8498 112.78 59.9898 113.96 63.1998C115.14 66.4098 114.72 68.2498 114.03 71.3598C111.83 81.1798 109.05 90.9098 106.68 100.68C103.7 107.29 93.8596 104.91 94.4296 97.5098L100.25 72.6598L100.23 72.6898Z" fill="#FF4255"/>
<path d="M119.651 77.2608C120.771 77.0308 121.871 77.7208 121.871 78.9208C121.871 80.0508 119.781 82.3308 119.351 83.4808C119.371 84.8108 120.471 87.2408 120.231 88.4408C120.021 89.5008 118.191 91.4608 117.751 92.5908C117.831 93.9908 118.871 96.3208 118.601 97.6408C118.521 98.0108 116.011 102.101 115.661 102.501C114.611 103.691 112.541 103.001 112.571 101.401C112.591 100.231 114.631 98.0108 115.101 96.8408C114.991 95.3208 113.811 92.8608 114.391 91.4508C114.731 90.6308 116.621 88.2208 116.661 87.6508C116.641 86.3508 115.651 84.2208 115.741 83.0308C115.761 82.8108 115.881 82.5208 115.971 82.3208C116.371 81.4108 117.971 78.9208 118.601 78.0808C118.861 77.7308 119.191 77.3508 119.641 77.2608H119.651Z" fill="#FF4255"/>
<path d="M73.1408 116.04C72.7108 117.35 72.6908 119.38 72.1708 120.6C71.6808 121.74 68.9608 122.87 68.0508 123.82C67.5108 125 67.5208 127.91 66.7608 128.81C66.4908 129.13 62.6008 131.78 62.1308 131.98C60.8508 132.54 59.4608 131.69 59.6108 130.28C59.7708 128.79 62.8508 127.62 63.8508 126.59C64.4108 124.97 64.3708 123.13 65.1408 121.59L69.0108 118.83C69.5208 117.63 69.5108 114.77 70.3108 113.84C71.2408 112.77 73.8708 111.65 75.0008 110.61C76.3808 110.15 77.6908 111.19 77.3908 112.65C77.1608 113.76 74.0608 115.28 73.1408 116.03V116.04Z" fill="#FF4255"/>
<path d="M68.539 32.0896C68.929 32.0096 69.599 32.0396 70.029 32.0596C71.069 32.1096 73.639 32.2896 74.539 32.5596C76.069 32.9996 76.139 35.3096 74.689 35.7896C73.339 36.2396 71.0389 35.3996 69.5889 35.5796C68.0889 36.4596 66.909 38.0396 65.239 38.5796L60.739 38.1396C59.549 38.8496 58.429 40.1696 57.259 40.8396C56.619 41.2096 56.319 41.1696 55.579 41.1396C54.149 40.7896 52.199 41.0196 50.829 40.6496C49.979 40.4196 49.499 39.6196 49.579 38.7596C49.809 36.1696 54.029 37.8096 55.669 37.6296C57.159 36.7796 58.289 35.2496 59.899 34.6396L64.609 35.0296C65.579 34.5296 67.619 32.2896 68.529 32.0996L68.539 32.0896Z" fill="#FF4255"/>
<path d="M19.1303 82.281C19.3203 82.071 19.7103 81.871 19.9903 81.801C21.2903 81.471 22.9603 81.571 24.3003 81.221C24.8003 81.021 26.4903 78.521 27.0603 77.931C28.2603 76.701 30.8603 77.171 32.4503 76.681C33.4003 75.911 34.9203 73.071 35.9903 72.771C36.8803 72.511 40.9903 72.001 41.8503 72.111C43.0103 72.251 43.5703 73.821 42.8903 74.781C42.0403 75.991 38.8203 75.611 37.4503 76.091C36.5303 76.851 35.1603 79.401 34.2103 79.841C32.9803 80.411 30.7503 80.171 29.4103 80.621C28.4303 81.391 26.9403 84.191 25.8503 84.511C25.0703 84.741 21.2303 85.241 20.4103 85.221C18.8903 85.181 18.0903 83.401 19.1303 82.281Z" fill="#FF4255"/>
</g>
<defs>
<clipPath id="clip0_571_10312">
<rect width="142" height="142" fill="white"/>
</clipPath>
</defs>
</svg>
